<?xml version="1.0" standalone="no"?>
<!DOCTYPE svg PUBLIC "-//W3C//DTD SVG 20010904//EN"
 "http://www.w3.org/TR/2001/REC-SVG-20010904/DTD/svg10.dtd">
<svg version="1.0" xmlns="http://www.w3.org/2000/svg"
 width="490.000000pt" height="119.000000pt" viewBox="0 0 490.000000 119.000000"
 preserveAspectRatio="xMidYMid meet">

<g transform="translate(0.000000,119.000000) scale(0.100000,-0.100000)"
fill="#000000" stroke="none">
<path d="M276 1048 c-2 -7 -9 -64 -15 -127 -16 -156 -44 -297 -92 -456 -22
-74 -39 -145 -37 -157 2 -17 24 -35 78 -66 41 -23 81 -41 89 -40 17 3 44 89
61 191 14 85 32 117 64 117 31 0 40 -13 60 -81 19 -68 72 -150 146 -224 67
-70 89 -76 138 -40 55 42 112 97 112 111 0 7 -49 37 -109 68 -121 62 -164 94
-187 138 -22 42 -11 71 42 115 185 153 95 343 -210 443 -54 18 -73 20 -87 12
-12 -8 -20 -8 -24 -2 -9 14 -25 12 -29 -2z m231 -68 c127 -58 193 -134 193
-223 0 -57 -29 -101 -102 -151 -55 -38 -56 -39 -54 -83 4 -61 62 -120 181
-181 l90 -47 -54 -3 c-73 -4 -91 1 -148 45 -26 20 -39 26 -29 14 11 -12 21
-36 22 -53 l3 -30 -25 23 c-44 42 -88 144 -88 209 l-1 57 -30 -8 c-16 -5 -44
-9 -61 -9 l-32 0 10 42 c5 23 6 59 3 79 -6 35 -5 37 26 43 58 11 116 53 129
91 10 32 9 40 -14 79 -14 25 -26 51 -26 59 0 8 -16 29 -35 46 -20 17 -33 31
-30 31 3 0 35 -14 72 -30z m-156 -127 c17 -92 17 -292 0 -383 -22 -121 -34
-170 -43 -170 -4 0 -8 6 -8 13 0 8 -16 12 -45 12 -43 1 -44 0 -31 -20 23 -36
9 -47 -35 -25 -21 11 -39 25 -39 30 0 5 11 44 24 87 38 119 83 309 96 400 12
78 41 149 59 139 4 -3 14 -40 22 -83z m89 62 c37 -19 70 -62 70 -91 0 -32 -47
-84 -76 -84 -34 0 -53 36 -56 108 -2 47 1 65 12 72 19 12 16 13 50 -5z"/>
<path d="M200 436 c0 -2 8 -10 18 -17 15 -13 16 -12 3 4 -13 16 -21 21 -21 13z"/>
<path d="M1195 1003 c-30 -234 -73 -332 -231 -529 -46 -58 -84 -112 -84 -119
0 -23 230 -162 249 -150 23 14 112 229 141 340 15 60 25 72 44 56 9 -8 25 -33
35 -56 24 -54 35 -60 60 -34 11 12 34 24 53 28 26 5 42 20 76 69 60 86 74 84
107 -20 55 -178 137 -371 168 -396 11 -10 30 -2 93 36 118 71 153 96 158 109
3 7 -18 40 -47 74 -98 115 -159 204 -203 295 -67 140 -114 255 -121 297 -7 49
-27 57 -54 23 -25 -31 -42 -33 -77 -6 -14 11 -29 17 -33 13 -4 -4 -14 -56 -23
-114 -18 -123 -29 -159 -50 -159 -28 0 -40 36 -82 238 -3 17 -11 22 -38 22
-18 0 -50 7 -69 15 -58 24 -65 20 -72 -32z m71 6 c10 -17 5 -337 -6 -404 -15
-81 -53 -195 -95 -280 -30 -60 -35 -65 -31 -35 l4 35 -48 1 c-46 0 -48 0 -34
-20 7 -12 10 -26 6 -33 -5 -8 -30 2 -82 33 -41 25 -76 47 -78 49 -2 2 26 39
61 83 121 149 189 263 222 372 9 30 18 60 20 65 2 6 4 -3 5 -20 0 -25 2 -27
11 -13 7 13 16 94 19 171 0 11 18 9 26 -4z m473 -193 c72 -163 144 -281 239
-394 34 -41 62 -77 62 -81 0 -4 -30 -24 -66 -45 -50 -28 -69 -35 -74 -25 -5 7
-2 22 6 33 13 21 12 22 -51 23 -60 1 -65 -1 -65 -21 -1 -31 -40 47 -88 180
-40 109 -72 253 -72 327 0 50 -16 47 -24 -5 -9 -53 -37 -117 -84 -190 -30 -47
-42 -58 -64 -58 -16 0 -28 2 -28 4 0 2 13 32 28 67 16 35 37 101 48 145 18 78
20 81 41 73 22 -8 33 4 14 15 -5 3 -9 24 -9 46 0 22 -3 44 -6 49 -4 5 -3 16 0
25 8 20 28 6 56 -39 l18 -30 0 25 c0 14 8 36 17 50 l17 24 9 -25 c5 -13 39
-91 76 -173z m-403 149 c-8 -43 3 -127 15 -119 5 3 9 15 10 27 0 12 16 -23 35
-77 18 -54 41 -107 50 -117 16 -17 14 -23 -17 -94 -18 -41 -38 -74 -43 -72
-18 6 -35 72 -60 236 -36 231 -37 239 -17 244 31 9 33 7 27 -28z"/>
<path d="M998 413 c7 -3 16 -2 19 1 4 3 -2 6 -13 5 -11 0 -14 -3 -6 -6z"/>
<path d="M3633 978 c-20 -10 -44 -69 -73 -185 -15 -61 -37 -82 -105 -99 -106
-28 -187 -81 -221 -146 -21 -40 -18 -124 6 -174 44 -90 184 -181 290 -189 28
-2 54 -6 58 -9 6 -7 47 -1 125 16 47 10 48 11 47 47 -5 96 0 99 74 41 66 -50
151 -89 213 -97 49 -5 49 -5 97 48 26 29 54 65 62 81 14 27 14 29 -11 38 -15
6 -31 10 -36 10 -17 0 -9 47 12 66 34 30 49 69 49 124 0 58 -13 90 -36 90 -9
0 -26 8 -39 18 -20 16 -33 18 -82 11 -149 -21 -257 -76 -301 -157 -27 -49 -45
-53 -61 -14 -26 64 -38 285 -22 413 10 81 3 91 -46 67z m26 -55 c-12 -71 -11
-264 2 -346 6 -40 22 -117 35 -171 29 -119 29 -113 4 -91 -11 10 -20 15 -20
11 0 -4 -5 -4 -11 -1 -6 5 -4 12 8 21 24 18 5 17 -27 -1 -34 -19 -58 -19 -64
3 -2 9 -8 79 -11 155 l-7 139 -37 -7 c-98 -18 -165 -72 -165 -132 0 -31 7 -43
48 -80 33 -30 67 -49 107 -61 64 -18 70 -25 38 -42 -24 -13 -90 -5 -133 17
-15 8 -25 10 -22 4 4 -7 -1 -11 -13 -11 -24 0 -27 -13 -7 -30 8 -6 12 -18 9
-26 -5 -13 -9 -12 -32 2 -44 28 -82 67 -102 106 -26 50 -25 133 1 176 36 58
136 109 260 130 l43 7 17 87 c24 114 39 160 58 176 26 20 29 14 21 -35z m488
-286 c10 -12 26 -21 36 -19 15 3 17 -5 17 -58 0 -100 -36 -140 -141 -155 -37
-5 -53 -3 -75 11 l-28 19 44 7 c57 10 78 31 86 88 5 40 11 50 38 64 l31 16
-35 -6 c-66 -11 -161 -46 -190 -71 -79 -66 2 -136 220 -194 l45 -11 -44 -14
c-38 -11 -49 -10 -83 3 -23 9 -51 13 -71 9 -24 -5 -28 -3 -17 5 11 8 8 9 -15
3 -16 -4 -40 -7 -52 -7 -27 1 -28 -4 -9 -26 9 -10 12 -22 7 -29 -6 -10 -19 -5
-52 20 -67 52 -89 90 -89 159 0 53 3 61 34 93 44 43 122 80 211 99 96 21 111
20 132 -6z m-615 -54 c9 -10 18 -48 22 -84 5 -56 3 -70 -12 -90 -18 -21 -21
-22 -51 -9 -52 21 -91 66 -91 105 0 25 8 40 35 64 40 35 74 40 97 14z m515
-50 c17 -44 -60 -99 -92 -66 -21 20 -19 30 11 58 31 29 72 33 81 8z m103 -258
c-7 -9 -15 -13 -17 -11 -7 7 7 26 19 26 6 0 6 -6 -2 -15z"/>
<path d="M4545 743 c-141 -30 -229 -76 -251 -129 -14 -32 -13 -39 3 -72 21
-43 80 -76 166 -94 57 -12 59 -12 77 12 16 21 21 23 45 12 21 -10 26 -18 23
-39 -5 -42 -39 -54 -140 -48 -86 5 -87 4 -106 -23 -31 -44 -72 -130 -72 -151
0 -43 179 -37 306 10 152 57 188 191 78 288 l-45 40 25 16 c14 9 34 14 44 10
12 -3 26 0 34 9 15 14 32 141 22 157 -5 9 -171 11 -209 2z m189 -75 c-4 -40
-8 -74 -9 -76 -2 -2 -39 2 -84 8 -106 14 -231 -7 -231 -40 0 -16 43 -39 88
-46 46 -7 47 -9 29 -40 -12 -21 -14 -21 -66 -8 -73 19 -132 53 -151 87 -13 24
-13 30 0 54 40 71 202 126 388 132 l42 1 -6 -72z m-139 -132 c28 -12 65 -37
82 -54 60 -60 50 -160 -19 -202 -38 -23 -38 -23 -58 -10 -13 9 -10 14 15 36
l30 25 -28 -11 c-34 -12 -40 -13 -33 -1 3 5 -13 2 -37 -6 -30 -11 -62 -13
-111 -9 -39 4 -71 8 -73 10 -2 2 1 15 8 29 11 25 12 25 108 20 110 -6 166 6
177 39 8 27 -22 67 -69 93 -41 22 -77 65 -55 65 7 0 36 -11 63 -24z"/>
<path d="M2783 726 c-23 -8 -62 -11 -86 -9 -29 4 -47 1 -52 -7 -4 -7 -7 -58
-6 -114 1 -66 -5 -133 -17 -192 -12 -58 -16 -98 -10 -108 10 -19 131 -106 146
-106 17 0 42 97 42 162 0 32 -7 93 -16 134 -20 98 -16 126 17 138 37 13 98
-19 124 -64 18 -31 20 -50 18 -167 l-3 -131 74 -31 c41 -17 89 -32 107 -33
l34 -3 3 80 c5 136 -38 296 -103 381 -55 72 -171 101 -272 70z m185 -25 c94
-49 143 -152 165 -348 5 -38 3 -42 -13 -33 -19 10 -120 9 -120 -2 0 -4 6 -13
13 -20 29 -28 -3 -50 -36 -25 -15 11 -16 21 -7 92 7 56 7 96 -1 137 -23 114
-69 153 -176 146 -60 -4 -63 -3 -63 19 0 13 1 23 3 23 1 0 20 7 42 15 58 21
148 19 193 -4z m-237 -81 c24 -87 49 -222 49 -267 l0 -32 -50 4 -51 4 7 -36 7
-36 -32 24 c-36 26 -36 31 -15 117 12 48 15 96 12 183 -4 113 -3 118 16 122
30 5 34 -1 57 -83z"/>
<path d="M3048 383 c7 -3 16 -2 19 1 4 3 -2 6 -13 5 -11 0 -14 -3 -6 -6z"/>
<path d="M2393 669 c-83 -11 -186 -46 -231 -79 -54 -39 -78 -78 -86 -141 -6
-41 -3 -56 14 -83 52 -86 186 -171 287 -182 l49 -6 48 53 c26 29 54 65 62 81
14 27 14 29 -11 38 -15 6 -31 10 -36 10 -17 0 -9 47 12 66 34 30 49 69 49 124
0 60 -13 90 -40 90 -10 0 -22 4 -25 10 -12 20 -41 26 -92 19z m84 -32 c10 -12
26 -21 36 -19 15 3 17 -5 17 -58 0 -100 -36 -140 -141 -155 -37 -5 -53 -3 -75
11 l-28 19 44 7 c57 10 78 31 86 88 5 40 11 50 38 64 l31 16 -35 -6 c-66 -11
-161 -46 -190 -71 -79 -66 2 -136 220 -194 l45 -11 -44 -14 c-38 -11 -49 -10
-83 3 -23 9 -51 13 -71 9 -24 -5 -28 -3 -17 5 11 8 8 9 -15 3 -16 -4 -40 -7
-52 -7 -27 1 -28 -4 -9 -26 9 -10 12 -22 7 -29 -6 -10 -19 -5 -52 20 -67 52
-89 90 -89 159 0 53 3 61 34 93 44 43 122 80 211 99 96 21 111 20 132 -6z
m-100 -104 c17 -44 -60 -99 -92 -66 -21 20 -19 30 11 58 31 29 72 33 81 8z
m103 -258 c-7 -9 -15 -13 -17 -11 -7 7 7 26 19 26 6 0 6 -6 -2 -15z"/>
</g>
</svg>
